REM DIRINDEX 1\2\6,1\2\7,1\2\8,1\2\9,1\3\10,1\3\11,1\4\12,1\4\13,1\4\14,1\5\15,1\5\16,1\5\17
REM DIRNAME folder01,folder02,folder03,folder04,folder05,folder06,folder07,folder08,folder09,folder10,folder11,folder12,folder13,folder14,folder15,folder16,folder17
TITLE ""
FILE "1900_2_sec09_0817_0832.mp3" MP3
  TRACK 01 AUDIO
    TITLE "0:"
    INDEX 01 00:00:00
  TRACK 02 AUDIO
    TITLE "13:cjc020_3754"
    INDEX 01 00:00:17
  TRACK 03 AUDIO
    TITLE "0:"
    INDEX 01 00:01:30
  TRACK 04 AUDIO
    TITLE "14:cjc020_3755"
    INDEX 01 00:01:32
  TRACK 05 AUDIO
    TITLE "0:"
    INDEX 01 00:05:18
  TRACK 06 AUDIO
    TITLE "13:cjc020_3756"
    INDEX 01 00:05:73
  TRACK 07 AUDIO
    TITLE "0:"
    INDEX 01 00:07:09
  TRACK 08 AUDIO
    TITLE "14:cjc020_3757"
    INDEX 01 00:07:11
  TRACK 09 AUDIO
    TITLE "0:"
    INDEX 01 00:10:06
  TRACK 10 AUDIO
    TITLE "13:cjc020_3758"
    INDEX 01 00:10:59
  TRACK 11 AUDIO
    TITLE "0:"
    INDEX 01 00:11:62
  TRACK 12 AUDIO
    TITLE "14:cjc020_3759"
    INDEX 01 00:11:66
  TRACK 13 AUDIO
    TITLE "0:"
    INDEX 01 00:14:11
  TRACK 14 AUDIO
    TITLE "13:cjc020_3760"
    INDEX 01 00:14:64
  TRACK 15 AUDIO
    TITLE "0:"
    INDEX 01 00:16:06
  TRACK 16 AUDIO
    TITLE "14:cjc020_3761"
    INDEX 01 00:16:08
  TRACK 17 AUDIO
    TITLE "0:"
    INDEX 01 00:18:17
  TRACK 18 AUDIO
    TITLE "13:cjc020_3762"
    INDEX 01 00:18:72
  TRACK 19 AUDIO
    TITLE "0:"
    INDEX 01 00:20:00
  TRACK 20 AUDIO
    TITLE "14:cjc020_3763"
    INDEX 01 00:20:02
  TRACK 21 AUDIO
    TITLE "0:"
    INDEX 01 00:22:36
  TRACK 22 AUDIO
    TITLE "13:cjc020_3764"
    INDEX 01 00:23:14
  TRACK 23 AUDIO
    TITLE "0:"
    INDEX 01 00:24:29
  TRACK 24 AUDIO
    TITLE "14:cjc020_3765"
    INDEX 01 00:24:33
  TRACK 25 AUDIO
    TITLE "0:"
    INDEX 01 00:26:62
  TRACK 26 AUDIO
    TITLE "13:cjc020_3766"
    INDEX 01 00:27:43
  TRACK 27 AUDIO
    TITLE "0:"
    INDEX 01 00:28:53
  TRACK 28 AUDIO
    TITLE "14:cjc020_3767"
    INDEX 01 00:28:57
  TRACK 29 AUDIO
    TITLE "0:"
    INDEX 01 00:31:08
  TRACK 30 AUDIO
    TITLE "13:cjc020_3768"
    INDEX 01 00:31:61
  TRACK 31 AUDIO
    TITLE "0:"
    INDEX 01 00:32:66
  TRACK 32 AUDIO
    TITLE "14:cjc020_3769"
    INDEX 01 00:32:72
  TRACK 33 AUDIO
    TITLE "0:"
    INDEX 01 00:34:02
  TRACK 34 AUDIO
    TITLE "13:cjc020_3770"
    INDEX 01 00:34:55
  TRACK 35 AUDIO
    TITLE "0:"
    INDEX 01 00:35:74
  TRACK 36 AUDIO
    TITLE "14:cjc020_3771"
    INDEX 01 00:36:01
  TRACK 37 AUDIO
    TITLE "0:"
    INDEX 01 00:38:37
  TRACK 38 AUDIO
    TITLE "13:cjc020_3772"
    INDEX 01 00:39:15
  TRACK 39 AUDIO
    TITLE "0:"
    INDEX 01 00:40:15
  TRACK 40 AUDIO
    TITLE "14:cjc020_3773"
    INDEX 01 00:40:19
  TRACK 41 AUDIO
    TITLE "0:"
    INDEX 01 00:44:14
  TRACK 42 AUDIO
    TITLE "13:cjc020_3774"
    INDEX 01 00:44:67
  TRACK 43 AUDIO
    TITLE "0:"
    INDEX 01 00:45:67
  TRACK 44 AUDIO
    TITLE "14:cjc020_3775"
    INDEX 01 00:45:69
  TRACK 45 AUDIO
    TITLE "0:"
    INDEX 01 00:49:16
  TRACK 46 AUDIO
    TITLE "13:cjc020_3776"
    INDEX 01 00:49:72
  TRACK 47 AUDIO
    TITLE "0:"
    INDEX 01 00:50:62
  TRACK 48 AUDIO
    TITLE "14:cjc020_3777"
    INDEX 01 00:50:64
  TRACK 49 AUDIO
    TITLE "0:"
    INDEX 01 00:54:03
  TRACK 50 AUDIO
    TITLE "13:cjc020_3778"
    INDEX 01 00:54:56
  TRACK 51 AUDIO
    TITLE "0:"
    INDEX 01 00:55:57
  TRACK 52 AUDIO
    TITLE "14:cjc020_3779"
    INDEX 01 00:55:59
  TRACK 53 AUDIO
    TITLE "0:"
    INDEX 01 00:56:45
  TRACK 54 AUDIO
    TITLE "13:cjc020_3780"
    INDEX 01 00:57:23
  TRACK 55 AUDIO
    TITLE "0:"
    INDEX 01 00:58:26
  TRACK 56 AUDIO
    TITLE "14:cjc020_3781"
    INDEX 01 00:58:30
  TRACK 57 AUDIO
    TITLE "0:"
    INDEX 01 01:01:60
  TRACK 58 AUDIO
    TITLE "13:cjc020_3782"
    INDEX 01 01:02:38
  TRACK 59 AUDIO
    TITLE "0:"
    INDEX 01 01:03:37
  TRACK 60 AUDIO
    TITLE "14:cjc020_3783"
    INDEX 01 01:03:39
  TRACK 61 AUDIO
    TITLE "0:"
    INDEX 01 01:06:28
  TRACK 62 AUDIO
    TITLE "13:cjc020_3784"
    INDEX 01 01:07:06
  TRACK 63 AUDIO
    TITLE "0:"
    INDEX 01 01:08:27
  TRACK 64 AUDIO
    TITLE "14:cjc020_3785"
    INDEX 01 01:08:31
  TRACK 65 AUDIO
    TITLE "0:"
    INDEX 01 01:11:43
